<svg width="2048" height="1280" viewBox="0 0 2048 1280" fill="none" xmlns="http://www.w3.org/2000/svg" role="img" aria-labelledby="title desc">
  <title id="title">Sniper Elite 4 Lorino Dockyard Recon private draft placeholder</title>
  <desc id="desc">A neutral Vaexil-created drafting grid for Sniper Elite 4 Lorino Dockyard. It is not copied game map art and is used only for protected admin review.</desc>
  <rect width="2048" height="1280" fill="#071014"/>
  <path d="M0 160H2048M0 320H2048M0 480H2048M0 640H2048M0 800H2048M0 960H2048M0 1120H2048M256 0V1280M512 0V1280M768 0V1280M1024 0V1280M1280 0V1280M1536 0V1280M1792 0V1280" stroke="#1F2E39" stroke-width="2"/>
  <path d="M0 80H2048M0 240H2048M0 400H2048M0 560H2048M0 720H2048M0 880H2048M0 1040H2048M0 1200H2048M128 0V1280M384 0V1280M640 0V1280M896 0V1280M1152 0V1280M1408 0V1280M1664 0V1280M1920 0V1280" stroke="#12202A" stroke-width="1"/>
  <rect x="96" y="96" width="1856" height="1088" rx="22" stroke="#2DD4BF" stroke-width="4" stroke-dasharray="20 18"/>
  <path d="M352 832C470 560 655 365 910 308C1148 255 1360 346 1528 528C1648 658 1721 791 1768 956C1575 1021 1356 1050 1112 1026C838 999 585 931 352 832Z" fill="#0B1A22" stroke="#38BDF8" stroke-width="5"/>
  <path d="M514 790C667 690 819 608 1000 588C1210 565 1407 617 1608 735M746 428C876 538 983 660 1038 812M1318 395C1262 546 1200 697 1112 1026" stroke="#3B5871" stroke-width="4"/>
  <circle cx="514" cy="790" r="16" fill="#22D3EE"/>
  <circle cx="1000" cy="588" r="16" fill="#22D3EE"/>
  <circle cx="1608" cy="735" r="16" fill="#22D3EE"/>
  <text x="144" y="190" fill="#E2E8F0" font-family="Arial, Helvetica, sans-serif" font-size="44" font-weight="700">Sniper Elite 4</text>
  <text x="144" y="250" fill="#94A3B8" font-family="Arial, Helvetica, sans-serif" font-size="34" font-weight="700">Lorino Dockyard</text>
  <text x="144" y="304" fill="#64748B" font-family="Arial, Helvetica, sans-serif" font-size="26">Mission 4 / lorino-dockyard</text>
  <text x="144" y="1090" fill="#94A3B8" font-family="Arial, Helvetica, sans-serif" font-size="28" font-weight="700" letter-spacing="5">RECON PRIVATE DRAFT ONLY</text>
  <text x="144" y="1134" fill="#64748B" font-family="Arial, Helvetica, sans-serif" font-size="23">Neutral placeholder for coordinate capture. Replace with a reviewed Vaexil-authored schematic before publishing.</text>
  <text x="1510" y="1134" fill="#64748B" font-family="Arial, Helvetica, sans-serif" font-size="22">0,0 top-left / 100,100 bottom-right</text>
</svg>
