<svg xmlns="http://www.w3.org/2000/svg" viewBox="0 0 1600 900" preserveAspectRatio="xMidYMid slice" role="img" aria-labelledby="title desc">
  <title id="title">Vaexil signal field</title>
  <desc id="desc">A dark neon signal field with map contours, grid lines, and clean cyan-magenta circuitry.</desc>
  <defs>
    <radialGradient id="bg" cx="70%" cy="28%" r="75%">
      <stop offset="0" stop-color="#17102a"/>
      <stop offset="0.48" stop-color="#070914"/>
      <stop offset="1" stop-color="#02030a"/>
    </radialGradient>
    <pattern id="grid" width="80" height="80" patternUnits="userSpaceOnUse">
      <path d="M80 0H0V80" fill="none" stroke="#22d3ee" stroke-opacity="0.1" stroke-width="1"/>
    </pattern>
    <linearGradient id="route" x1="100" y1="730" x2="1460" y2="180" gradientUnits="userSpaceOnUse">
      <stop offset="0" stop-color="#22d3ee"/>
      <stop offset="1" stop-color="#d946ef"/>
    </linearGradient>
  </defs>
  <rect width="1600" height="900" fill="url(#bg)"/>
  <rect width="1600" height="900" fill="url(#grid)"/>
  <g fill="none" stroke="#d946ef" stroke-opacity="0.18" stroke-width="2">
    <path d="M890 82C1030 132 1118 112 1270 80C1390 56 1510 100 1582 182"/>
    <path d="M842 150C1006 198 1110 188 1266 148C1400 114 1502 158 1586 238"/>
    <path d="M786 224C982 274 1124 274 1286 222C1408 184 1506 238 1588 314"/>
    <path d="M60 640C210 584 346 618 500 680C630 732 734 724 842 676"/>
    <path d="M42 712C220 652 362 704 504 758C646 830 766 810 884 748"/>
  </g>
  <g fill="none" stroke="url(#route)" stroke-linecap="square" stroke-linejoin="miter">
    <path d="M126 702H390L530 562H704L834 432H1084L1210 306H1464" stroke-opacity="0.5" stroke-width="3"/>
    <path d="M260 188H450L566 304H810L922 192H1160L1276 86" stroke-opacity="0.36" stroke-width="2"/>
    <path d="M530 562V430M834 432V288M1084 432V574M1210 306V184" stroke-opacity="0.32" stroke-width="2"/>
  </g>
  <g fill="#22d3ee">
    <circle cx="390" cy="702" r="7" opacity="0.62"/>
    <circle cx="704" cy="562" r="7" opacity="0.45"/>
    <circle cx="1084" cy="432" r="7" opacity="0.46"/>
  </g>
  <g fill="#d946ef">
    <circle cx="1210" cy="306" r="7" opacity="0.58"/>
    <circle cx="1276" cy="86" r="6" opacity="0.48"/>
  </g>
</svg>
