<svg xmlns="http://www.w3.org/2000/svg" viewBox="0 0 160 160" role="img" aria-labelledby="title desc">
  <title id="title">Vaexil mark</title>
  <desc id="desc">A neon cyan and magenta V mark with clean map and signal geometry.</desc>
  <defs>
    <linearGradient id="left" x1="30" y1="22" x2="84" y2="138" gradientUnits="userSpaceOnUse">
      <stop offset="0" stop-color="#7cf8ff"/>
      <stop offset="1" stop-color="#00b7ff"/>
    </linearGradient>
    <linearGradient id="right" x1="130" y1="22" x2="76" y2="138" gradientUnits="userSpaceOnUse">
      <stop offset="0" stop-color="#ff73dc"/>
      <stop offset="1" stop-color="#c026d3"/>
    </linearGradient>
    <filter id="glow" x="-20%" y="-20%" width="140%" height="140%">
      <feGaussianBlur stdDeviation="2.2" result="blur"/>
      <feColorMatrix in="blur" type="matrix" values="0 0 0 0 0.2 0 0 0 0 0.72 0 0 0 0 1 0 0 0 0.52 0"/>
      <feMerge>
        <feMergeNode/>
        <feMergeNode in="SourceGraphic"/>
      </feMerge>
    </filter>
  </defs>
  <g fill="none" stroke-linecap="square" stroke-linejoin="miter">
    <path d="M28 32L78 132" stroke="url(#left)" stroke-width="12" filter="url(#glow)"/>
    <path d="M132 32L82 132" stroke="url(#right)" stroke-width="12" filter="url(#glow)"/>
    <path d="M48 54L78 116M112 54L82 116" stroke="#05070d" stroke-opacity="0.75" stroke-width="3"/>
    <path d="M42 78H58M56 98H72M102 76H120M88 100H104" stroke="#f8fbff" stroke-opacity="0.58" stroke-width="2"/>
    <path d="M22 82H12M148 82H138M80 22V12M80 148V138" stroke="#d946ef" stroke-opacity="0.62" stroke-width="2"/>
    <path d="M24 48C44 24 116 24 136 48M24 112C44 136 116 136 136 112" stroke="#d946ef" stroke-opacity="0.22" stroke-width="2"/>
  </g>
</svg>
