<svg width="2048" height="1280" viewBox="0 0 2048 1280" fill="none" xmlns="http://www.w3.org/2000/svg">
  <style>.title{fill:#bae6fd;font:700 42px Arial,sans-serif;text-anchor:middle}.note{fill:#94a3b8;font:26px Arial,sans-serif;text-anchor:middle}.label{fill:#e0f2fe;font:700 30px Arial,sans-serif;text-anchor:middle}.small{fill:#cbd5e1;font:23px Arial,sans-serif;text-anchor:middle}</style>
  <rect width="2048" height="1280" fill="#050B14"/>
  <path d="M322 928C392 550 632 312 1024 312C1416 312 1656 550 1726 928H322Z" fill="#08111F" stroke="#38BDF8" stroke-width="8"/>
  <ellipse cx="1024" cy="670" rx="364" ry="230" fill="#0E2436" stroke="#67E8F9" stroke-width="8"/>
  <path d="M526 900C658 778 780 722 922 708" stroke="#E0F2FE" stroke-width="12" stroke-linecap="round" stroke-dasharray="30 24"/>
  <path d="M1522 900C1390 778 1268 722 1126 708" stroke="#E0F2FE" stroke-width="12" stroke-linecap="round" stroke-dasharray="30 24"/>
  <rect x="872" y="428" width="304" height="130" rx="26" fill="#142617" stroke="#86EFAC" stroke-width="7"/>
  <rect x="736" y="838" width="576" height="118" rx="26" fill="#17203A" stroke="#A78BFA" stroke-width="7"/>
  <circle cx="1024" cy="670" r="58" fill="#0F172A" stroke="#67E8F9" stroke-width="8"/>
  <circle cx="1024" cy="494" r="48" fill="#0F172A" stroke="#86EFAC" stroke-width="8"/>
  <circle cx="1024" cy="898" r="48" fill="#0F172A" stroke="#A78BFA" stroke-width="8"/>
  <text x="1024" y="96" class="title">Vaexil Recon Draft - Dubai 1F / Atrium</text>
  <text x="1024" y="680" class="label">atrium</text>
  <text x="1024" y="504" class="label">lobby</text>
  <text x="1024" y="908" class="label">event stairs</text>
  <text x="1024" y="1148" class="note">Private floor plate. Drawn from temporary reference review, then abstracted and cleaned.</text>
  <text x="1024" y="1190" class="note">No reference image, exact geometry, marker coordinate, or third-party label is embedded.</text>
</svg>
